<svg xmlns="http://www.w3.org/2000/svg" width="145" height="107" viewBox="0 0 145 107" fill="none"><rect x="6" y="52" width="26" height="19" fill="white"></rect><path d="M8.54695 7.66627C7.52473 7.66627 6.63028 7.29578 5.8778 6.54055C5.12533 5.78533 4.7562 4.8876 4.7562 3.86163C4.7562 2.83566 5.12533 1.93794 5.8778 1.16846C6.63028 0.384738 7.52473 0 8.54695 0C9.59757 0 10.5062 0.384738 11.2587 1.15422C12.0112 1.92369 12.3803 2.82141 12.3803 3.84738C12.3803 4.87335 12.0112 5.77108 11.2587 6.5263C10.5062 7.29578 9.59757 7.66627 8.54695 7.66627ZM5.46607 34.6692V10.5589H11.6562V34.6692H5.46607Z" fill="#002853"></path><path d="M33.0094 10.5589H39.8243L30.6952 34.6692H23.639L14.5099 10.5589H21.3248L27.1458 27.4304L33.0094 10.5589Z" fill="#002853"></path><path d="M59.9706 10.5589H66.1608V34.6692H59.9706V31.8193C58.1107 34.1705 55.4984 35.3389 52.1336 35.3389C48.9249 35.3389 46.1848 34.1135 43.899 31.6483C41.6131 29.1831 40.4631 26.1765 40.4631 22.6141C40.4631 19.0517 41.6131 16.0308 43.899 13.5798C46.1848 11.1289 48.9391 9.88921 52.1336 9.88921C55.4984 9.88921 58.1107 11.0577 59.9706 13.4088V10.5589ZM48.5274 27.5017C49.7768 28.7699 51.3669 29.4111 53.2836 29.4111C55.2002 29.4111 56.7904 28.7699 58.0681 27.5017C59.3317 26.2335 59.9706 24.5948 59.9706 22.6141C59.9706 20.6334 59.3317 18.9947 58.0681 17.7265C56.8046 16.4583 55.2144 15.817 53.2836 15.817C51.3527 15.817 49.7768 16.4583 48.5274 17.7265C47.278 18.9947 46.6533 20.6334 46.6533 22.6141C46.6533 24.5948 47.278 26.2335 48.5274 27.5017Z" fill="#002853"></path><path d="M85.0436 9.88921C87.6701 9.88921 89.8424 10.7727 91.5461 12.5396C93.264 14.3066 94.1158 16.7575 94.1158 19.8639V34.6692H87.9257V20.6334C87.9257 19.0232 87.4998 17.7977 86.6337 16.9427C85.7677 16.0878 84.6177 15.6603 83.1695 15.6603C81.5652 15.6603 80.2874 16.159 79.322 17.1565C78.3565 18.154 77.888 19.6502 77.888 21.6451V34.655H71.6837V10.5589H77.888V13.2521C79.3929 11.0149 81.7781 9.88921 85.0436 9.88921Z" fill="#002853"></path><path d="M59.3175 57.7677H53.894V67.7994C53.894 68.6402 54.107 69.2529 54.5187 69.6376C54.9305 70.0224 55.541 70.2361 56.3502 70.2931C57.1453 70.3359 58.1391 70.3359 59.3317 70.2646V75.9075C55.0725 76.3919 52.0626 75.9929 50.3305 74.6962C48.5842 73.4138 47.7181 71.1196 47.7181 67.7994V57.7677H43.544V51.7829H47.7181V46.9096L53.9224 45.0286V51.7829H59.3459V57.7677H59.3175Z" fill="#002853"></path><path d="M68.7873 66.403C69.625 69.4239 71.8824 70.9343 75.5596 70.9343C77.9306 70.9343 79.7195 70.1364 80.9404 68.5262L85.938 71.4188C83.567 74.853 80.0744 76.5772 75.4602 76.5772C71.4849 76.5772 68.3046 75.366 65.9052 72.9578C63.5058 70.5496 62.299 67.5144 62.299 63.8381C62.299 60.2044 63.4774 57.1835 65.8484 54.7468C68.2194 52.3244 71.2577 51.1132 74.9775 51.1132C78.4985 51.1132 81.409 52.3387 83.6948 54.7753C85.9806 57.212 87.1306 60.2329 87.1306 63.8381C87.1306 64.636 87.0454 65.491 86.8892 66.3887H68.7873V66.403ZM68.6879 61.5866H80.9404C80.5855 59.9479 79.8614 58.7225 78.754 57.9245C77.6466 57.1265 76.3972 56.7133 74.9775 56.7133C73.3163 56.7133 71.9392 57.1408 70.846 57.9957C69.7527 58.8365 69.0429 60.0334 68.6879 61.5866Z" fill="#002853"></path><path d="M102.691 76.5772C99.0708 76.5772 96.0609 75.3517 93.6331 72.915C91.2195 70.4784 90.0128 67.4575 90.0128 63.8523C90.0128 60.2472 91.2195 57.2263 93.6331 54.7896C96.0467 52.3529 99.0708 51.1275 102.691 51.1275C105.034 51.1275 107.163 51.6832 109.08 52.8089C110.997 53.9346 112.459 55.4451 113.453 57.3403L108.115 60.4752C107.632 59.4777 106.908 58.694 105.928 58.1097C104.949 57.5255 103.855 57.2405 102.634 57.2405C100.775 57.2405 99.2412 57.8533 98.0202 59.093C96.7992 60.3327 96.1887 61.9144 96.1887 63.8381C96.1887 65.7333 96.7992 67.3007 98.0202 68.5404C99.2412 69.7801 100.775 70.3929 102.634 70.3929C103.884 70.3929 104.991 70.1079 105.971 69.5521C106.95 68.9964 107.675 68.2127 108.157 67.2152L113.538 70.3074C112.488 72.2026 110.997 73.7273 109.066 74.8672C107.135 76.0072 105.02 76.5772 102.691 76.5772Z" fill="#002853"></path><path d="M130.291 51.1132C132.918 51.1132 135.09 51.9967 136.794 53.7636C138.512 55.5306 139.364 57.9815 139.364 61.0879V75.8932H133.173V61.8574C133.173 60.2472 132.747 59.0217 131.881 58.1667C131.015 57.3118 129.865 56.8843 128.417 56.8843C126.813 56.8843 125.535 57.383 124.57 58.3805C123.604 59.378 123.121 60.8742 123.121 62.8691V75.8932H116.931V42.1502H123.121V54.4904C124.641 52.2389 127.026 51.1132 130.291 51.1132Z" fill="#002853"></path><path d="M24.1927 106.772H18.8544L17.4488 103.252H9.92411L8.49015 106.772H3.15186L10.7902 89.416H16.5544L24.1927 106.772ZM16.242 100.231L13.7149 93.8904L11.1593 100.231H16.242Z" fill="#E53866"></path><path d="M41.1446 105.461C40.4347 105.832 39.6964 106.131 38.944 106.359C38.1915 106.587 37.439 106.744 36.6866 106.843C35.9199 106.943 35.139 106.986 34.3156 106.986C32.8106 106.986 31.4618 106.772 30.2692 106.359C29.0766 105.946 28.0402 105.319 27.16 104.506C26.2797 103.694 25.6266 102.739 25.1865 101.656C24.7464 100.573 24.5334 99.3765 24.5334 98.0655C24.5334 96.5693 24.789 95.2584 25.3001 94.1326C25.8112 93.0069 26.5353 92.0807 27.4723 91.3397C28.3952 90.5988 29.46 90.043 30.6384 89.6868C31.8168 89.3305 33.0662 89.1595 34.3865 89.1595C36.3458 89.1595 38.5748 89.6013 41.0594 90.4705V95.0731C40.2076 94.5316 39.3557 94.0899 38.518 93.7337C37.6804 93.3774 36.7008 93.2064 35.5649 93.2064C34.5569 93.2064 33.6199 93.4059 32.7396 93.8049C31.8594 94.2039 31.1637 94.7739 30.6242 95.5149C30.0847 96.2558 29.8291 97.1251 29.8291 98.1225C29.8291 99.006 30.0563 99.804 30.5248 100.531C30.9933 101.257 31.6322 101.842 32.4699 102.269C33.2933 102.697 34.2304 102.91 35.2668 102.91C36.1045 102.91 36.8995 102.811 37.652 102.597C38.4045 102.383 39.0292 102.169 39.5403 101.913C40.0514 101.656 40.5767 101.371 41.1162 101.029V105.461H41.1446Z" fill="#E53866"></path><path d="M63.7898 106.772H58.4515L57.0459 103.252H49.5354L48.1014 106.772H42.7631L50.4156 89.416H56.1798L63.7898 106.772ZM55.8391 100.231L53.3119 93.8904L50.7564 100.231H55.8391Z" fill="#E53866"></path><path d="M83.7942 98.4075C83.7942 100.189 83.4676 101.614 82.8287 102.697C82.1756 103.78 81.4232 104.649 80.5571 105.319C79.3219 106.302 77.5898 106.786 75.3466 106.786H66.0188V89.416H73.2028C74.2818 89.416 75.2046 89.473 75.9855 89.587C76.7522 89.701 77.4479 89.8578 78.0583 90.0573C78.6688 90.2568 79.1942 90.4848 79.6343 90.7412C80.0744 90.9977 80.4577 91.2685 80.7985 91.5677C81.3948 92.0522 81.9059 92.6222 82.346 93.2777C82.7861 93.9331 83.1411 94.7026 83.4108 95.5719C83.6522 96.4411 83.7942 97.3815 83.7942 98.4075ZM78.4843 98.1795C78.4843 96.7688 78.2145 95.6716 77.675 94.8736C77.1355 94.0899 76.4966 93.5627 75.7441 93.2919C74.9917 93.0212 74.225 92.8929 73.4441 92.8929H71.2293V103.181H73.4441C74.8071 103.181 75.9855 102.853 76.9935 102.198C78.0016 101.542 78.4843 100.203 78.4843 98.1795Z" fill="#E53866"></path><path d="M100.065 106.772H87.0312V89.416H99.8659V92.8929H92.256V96.0706H99.5251V99.5617H92.256V103.267H100.079V106.772H100.065Z" fill="#E53866"></path><path d="M123.86 106.772H118.649V96.7118L113.95 102.54H113.538L108.825 96.7118V106.772H103.756V89.416H108.484L113.794 95.9281L119.132 89.416H123.86V106.772Z" fill="#E53866"></path><path d="M145 89.416L138.228 98.8208V106.772H133.017V98.9205L126.117 89.416H131.526L135.488 94.8736L139.463 89.416H145Z" fill="#E53866"></path><path d="M19.1667 41.3808C8.60374 41.3808 0 50.016 0 60.6177C0 71.2193 8.60374 79.8546 19.1667 79.8546C29.7298 79.8546 38.3335 71.2336 38.3335 60.6177C38.3335 50.0017 29.7298 41.3808 19.1667 41.3808ZM17.6618 65.3485C16.5118 66.5027 15.1062 67.0727 13.4593 67.0727C11.8124 67.0727 10.4068 66.5027 9.27103 65.3485C8.12102 64.1943 7.55312 62.7836 7.55312 61.1164C7.55312 59.4492 8.12102 58.0385 9.27103 56.8985C10.421 55.7443 11.8124 55.1743 13.4593 55.1743C15.1062 55.1743 16.5118 55.7443 17.6618 56.8985C18.8118 58.0527 19.3939 59.4492 19.3939 61.1164C19.3939 62.7836 18.8118 64.2086 17.6618 65.3485ZM29.8433 66.8447H28.1396L23.2415 59.8482V66.8447H20.9982V55.4023H22.7019L27.5859 62.3704V55.4023H29.8291V66.8447H29.8433Z" fill="#E53866"></path><path d="M13.4593 57.3688C12.4229 57.3688 11.5426 57.725 10.8328 58.4375C10.1229 59.15 9.76794 60.0477 9.76794 61.1306C9.76794 62.2136 10.1229 63.1113 10.8328 63.8238C11.5426 64.522 12.4087 64.8783 13.4593 64.8783C14.5099 64.8783 15.376 64.522 16.0859 63.8238C16.7958 63.1256 17.1507 62.2279 17.1507 61.1306C17.1507 60.0334 16.7958 59.1357 16.0859 58.4375C15.376 57.7392 14.4957 57.3688 13.4593 57.3688Z" fill="#E53866"></path></svg>