<?xml version="1.0" standalone="no"?>
<!DOCTYPE svg PUBLIC "-//W3C//DTD SVG 20010904//EN"
 "http://www.w3.org/TR/2001/REC-SVG-20010904/DTD/svg10.dtd">
<svg version="1.0" xmlns="http://www.w3.org/2000/svg"
 width="700.000000pt" height="700.000000pt" viewBox="0 0 700.000000 700.000000"
 preserveAspectRatio="xMidYMid meet">
<metadata>
Created by potrace 1.14, written by Peter Selinger 2001-2017
</metadata>
<g transform="translate(0.000000,700.000000) scale(0.100000,-0.100000)"
fill="#000000" stroke="none">
<path d="M2105 4736 c-207 -33 -369 -117 -520 -271 -142 -144 -205 -300 -205
-510 0 -209 57 -351 195 -491 81 -82 150 -128 263 -177 83 -35 141 -50 393
-97 241 -45 314 -72 373 -141 90 -106 58 -270 -67 -344 -123 -71 -358 -69
-512 5 -104 50 -192 168 -220 295 l-16 72 -92 -22 c-435 -104 -407 -95 -407
-123 0 -82 66 -253 139 -360 166 -245 397 -371 740 -403 189 -17 363 3 528 63
232 84 434 303 493 534 25 95 27 263 5 349 -54 212 -242 421 -455 505 -94 38
-178 59 -397 101 -304 57 -350 77 -397 170 -63 127 -6 258 142 331 64 32 71
33 182 32 144 -1 208 -22 287 -97 52 -49 113 -151 113 -189 0 -10 2 -18 5 -18
14 0 481 134 488 140 4 3 -2 38 -14 76 -55 179 -170 339 -309 429 -194 125
-480 180 -735 141z"/>
<path d="M4569 4740 c-293 -34 -562 -170 -777 -394 -241 -252 -353 -564 -339
-951 6 -163 22 -262 68 -399 140 -420 508 -730 964 -812 134 -23 385 -24 510
0 326 62 560 208 739 460 88 123 194 363 170 384 -9 9 -476 144 -502 146 -7 1
-25 -29 -41 -65 -55 -131 -168 -259 -278 -317 -140 -73 -368 -96 -536 -53
-199 52 -382 203 -461 382 -47 107 -60 183 -59 339 1 246 56 394 197 535 93
91 176 144 291 182 71 24 96 27 215 27 149 0 219 -14 326 -65 116 -55 237
-191 284 -321 13 -35 24 -64 25 -66 3 -3 506 156 513 162 21 22 -87 263 -167
371 -60 82 -177 203 -241 250 -105 77 -287 152 -450 185 -115 23 -336 33 -451
20z"/>
</g>
</svg>
