<?xml version="1.0" encoding="UTF-8"?><svg viewBox="0 0 523 163" xmlns="http://www.w3.org/2000/svg" xmlns:xlink="http://www.w3.org/1999/xlink"><defs><path d="M488.097 150.721c-20.599 19.597-69.727 15.431-69.727-23.221 0-40.723 42.677-43.856 69.459-41.396-.001-.049-.001-.098-.002-.147-.991-21.309-36.422-16.061-50.565-4.748-4.427-6.36-11.925-17.698-15.001-22.824 16.279-12.568 56.028-21.729 76.389-10.165 20.362 11.563 24.345 31.791 24.35 42.084 0 .042 0 .083-.001.124L523 170l-.001-10.611h-33.96l-.942-8.668zm-133.627-.938c-36.141 28.679-73.198 1.451-77.824-35.445-5.76-45.952 30.653-82.449 77.529-66.545V0h35.73v159.389h-34.391l-1.044-9.606zm-.295-38.718V79.153c-15.483-7.06-39.395-7.321-41.568 24.717-2.227 32.828 38.775 36.161 41.568 7.195zM217.029 58.173c10.457-12.784 25.331-16.47 44.624-11.056-2.902 15.983-4.896 26.783-5.983 32.399-27.805-4.851-38.04 3.515-38.163 27.811v.897c0 .056.001.111.001.166 0 .014-.001.028-.001.042v51.11h-35.73V46.66h34.39l.862 11.513zM92.228 55.484c-9.75 7.185-17.201 17.367-21.03 29.205-3.687-2.715-8.227-4.317-13.137-4.317-12.333 0-22.331 10.108-22.331 22.576 0 12.469 9.998 22.577 22.331 22.577 4.91 0 9.45-1.602 13.137-4.318 3.829 11.839 11.28 22.02 21.03 29.206-9.586 7.065-21.395 11.234-34.167 11.234C25.995 161.647 0 135.367 0 102.948 0 70.53 25.995 44.25 58.061 44.25c12.772 0 24.581 4.169 34.167 11.234zm395.49 54.689c-10.666.127-34.715-3.742-34.161 14.002.554 17.745 34.161 14.655 34.161-5.875 0-6.785.004-6.759 0-8.127zm-361.323 15.352c-12.333 0-22.331-10.108-22.331-22.577 0-12.468 9.998-22.576 22.331-22.576s22.332 10.108 22.332 22.576c0 12.469-9.999 22.577-22.332 22.577z" id="a"/></defs><g fill="none" fill-rule="evenodd"><mask id="b" fill="#fff"><use xlink:href="#a"/></mask><path fill="#E0081C" mask="url(#b)" d="M0 170.04h523.08V0H0z"/></g></svg>