<svg width="94" height="80" viewBox="0 0 94 80" xmlns="http://www.w3.org/2000/svg" xmlns:xlink="http://www.w3.org/1999/xlink">
    <g>
       <path fill="#ffffff" d="M94.1129,47.5565 C94.1129,73.2685 73.2689,94.1125 47.5559,94.1125 C21.8439,94.1125 0.9999,73.2685 0.9999,47.5565 C0.9999,21.8435 21.8439,0.9995 47.5559,0.9995 C73.2689,0.9995 94.1129,21.8435 94.1129,47.5565"></path>
       <path fill="#007bff" d="M31.6783,51.8085 C31.6783,50.7395 30.8133,49.8735 29.7423,49.8735 C28.6753,49.8735 27.8083,50.7395 27.8083,51.8085 L27.8083,66.0725 C27.8083,67.1405 28.6753,68.0075 29.7423,68.0075 C30.8133,68.0075 31.6783,67.1405 31.6783,66.0725 L31.6783,51.8085 Z M68.2353,51.8085 C68.2353,50.7395 67.3693,49.8735 66.3003,49.8735 C65.2323,49.8735 64.3653,50.7395 64.3653,51.8085 L64.3653,66.0725 C64.3653,67.1405 65.2323,68.0075 66.3003,68.0075 C67.3693,68.0075 68.2353,67.1405 68.2353,66.0725 L68.2353,51.8085 Z M62.1433,43.7095 C62.1433,42.6415 61.2773,41.7745 60.2063,41.7745 C59.1383,41.7745 58.2723,42.6415 58.2723,43.7095 L58.2723,66.0725 C58.2723,67.1415 59.1383,68.0075 60.2063,68.0075 C61.2773,68.0075 62.1433,67.1415 62.1433,66.0725 L62.1433,43.7095 Z M37.7733,43.7095 C37.7733,42.6415 36.9053,41.7745 35.8363,41.7745 C34.7683,41.7745 33.9003,42.6415 33.9003,43.7095 L33.9003,66.0725 C33.9003,67.1415 34.7683,68.0075 35.8363,68.0075 C36.9053,68.0075 37.7733,67.1415 37.7733,66.0725 L37.7733,43.7095 Z M56.0493,29.9185 C56.0493,28.8495 55.1833,27.9825 54.1153,27.9825 C53.0463,27.9825 52.1793,28.8495 52.1793,29.9185 L52.1793,58.8665 C52.1793,59.9355 53.0463,60.8025 54.1153,60.8025 C55.1833,60.8025 56.0493,59.9355 56.0493,58.8665 L56.0493,29.9185 Z M43.8653,29.9185 C43.8653,28.8495 42.9973,27.9825 41.9293,27.9825 C40.8603,27.9825 39.9933,28.8495 39.9933,29.9185 L39.9933,58.8665 C39.9933,59.9355 40.8603,60.8025 41.9293,60.8025 C42.9973,60.8025 43.8653,59.9355 43.8653,58.8665 L43.8653,29.9185 Z M49.9573,52.6645 C49.9573,53.7325 49.0913,54.5995 48.0223,54.5995 C46.9523,54.5995 46.0863,53.7325 46.0863,52.6645 L46.0863,20.7595 C46.0863,19.6915 46.9523,18.8255 48.0223,18.8255 C49.0913,18.8255 49.9573,19.6915 49.9573,20.7595 L49.9573,52.6645 Z"></path>
    </g>
</svg>