<svg version="1.0" xmlns="http://www.w3.org/2000/svg" xmlns:xlink="http://www.w3.org/1999/xlink"
 width="400" height="400" viewBox="0 0 400 400"
 preserveAspectRatio="xMidYMid meet">
<g transform="translate(0,400) scale(0.100000,-0.100000)"
fill="#000000" stroke="none">
<path d="M0 2000 l0 -2000 2000 0 2000 0 0 2000 0 2000 -2000 0 -2000 0 0
-2000z m1650 355 l-245 -245 -3 97 -3 97 148 148 148 148 100 0 100 0 -245
-245z m640 241 c0 -6 -878 -886 -884 -886 -3 0 -6 44 -6 97 l0 98 347 347 348
348 97 0 c54 0 98 -2 98 -4z m310 -48 l0 -53 -547 -547 -548 -548 -52 0 -53 0
0 52 0 53 547 547 548 548 52 0 53 0 0 -52z m0 -355 l0 -98 -347 -347 -348
-348 -97 0 c-54 0 -98 2 -98 5 0 8 874 884 883 884 4 1 7 -43 7 -96z m-147
-645 l-148 -148 -100 0 -100 0 245 245 245 245 3 -97 3 -97 -148 -148z"/>
</g>
</svg>
