<svg width="118" height="69" viewBox="0 0 118 69" fill="none" xmlns="http://www.w3.org/2000/svg">
<path d="M0.728 14.052L4.34 13.408C4.37733 13.9307 4.57333 14.3787 4.928 14.752C5.30133 15.1067 5.83333 15.284 6.524 15.284C7.04667 15.284 7.448 15.172 7.728 14.948C8.008 14.7053 8.148 14.416 8.148 14.08C8.148 13.52 7.69067 13.1373 6.776 12.932L5.18 12.568C3.76133 12.2693 2.716 11.7467 2.044 11C1.372 10.2347 1.036 9.32933 1.036 8.284C1.036 6.996 1.54 5.904 2.548 5.008C3.57467 4.112 4.85333 3.664 6.384 3.664C8.19467 3.664 9.548 4.10267 10.444 4.98C11.3587 5.83867 11.8627 6.78133 11.956 7.808L8.428 8.452C8.372 7.948 8.176 7.53733 7.84 7.22C7.52267 6.90267 7.056 6.744 6.44 6.744C6.02933 6.744 5.67467 6.856 5.376 7.08C5.07733 7.304 4.928 7.59333 4.928 7.948C4.928 8.508 5.292 8.85333 6.02 8.984L7.868 9.348C9.268 9.628 10.332 10.16 11.06 10.944C11.788 11.728 12.152 12.652 12.152 13.716C12.152 15.004 11.6667 16.1147 10.696 17.048C9.72533 17.9627 8.36267 18.42 6.608 18.42C5.58133 18.42 4.66667 18.2707 3.864 17.972C3.08 17.6733 2.47333 17.2907 2.044 16.824C1.63333 16.3387 1.316 15.8627 1.092 15.396C0.886667 14.9293 0.765333 14.4813 0.728 14.052ZM18.895 18H14.639V4.084H18.699V5.68C19.035 5.08267 19.5856 4.59733 20.351 4.224C21.135 3.85067 21.919 3.664 22.703 3.664C24.7003 3.664 26.0723 4.392 26.819 5.848C27.827 4.392 29.2643 3.664 31.131 3.664C32.587 3.664 33.8096 4.112 34.799 5.008C35.7883 5.88533 36.283 7.21067 36.283 8.984V18H32.167V9.936C32.167 9.24533 31.9803 8.68533 31.607 8.256C31.2336 7.808 30.683 7.584 29.955 7.584C29.227 7.584 28.6576 7.81733 28.247 8.284C27.8363 8.75067 27.631 9.31067 27.631 9.964V18H23.431V9.936C23.431 9.24533 23.235 8.68533 22.843 8.256C22.4696 7.808 21.919 7.584 21.191 7.584C20.4816 7.584 19.9216 7.81733 19.511 8.284C19.1003 8.75067 18.895 9.32 18.895 9.992V18ZM38.7572 14.164C38.7572 12.988 39.1399 12.0453 39.9052 11.336C40.6706 10.608 41.6599 10.1507 42.8732 9.964L46.1492 9.46C46.8212 9.36667 47.1572 9.04933 47.1572 8.508C47.1572 8.07867 46.9706 7.724 46.5972 7.444C46.2426 7.14533 45.7479 6.996 45.1132 6.996C44.4039 6.996 43.8346 7.20133 43.4052 7.612C42.9946 8.004 42.7706 8.48 42.7332 9.04L39.0372 8.284C39.1306 7.12667 39.6999 6.072 40.7452 5.12C41.8092 4.14933 43.2746 3.664 45.1412 3.664C47.2506 3.664 48.7999 4.168 49.7892 5.176C50.7972 6.184 51.3012 7.472 51.3012 9.04V15.844C51.3012 16.7213 51.3572 17.44 51.4692 18H47.6332C47.5399 17.6267 47.4932 17.104 47.4932 16.432C46.6906 17.7387 45.3839 18.392 43.5732 18.392C42.0986 18.392 40.9226 17.9813 40.0452 17.16C39.1866 16.32 38.7572 15.3213 38.7572 14.164ZM44.6092 15.312C45.3372 15.312 45.9439 15.0973 46.4292 14.668C46.9146 14.2387 47.1572 13.5293 47.1572 12.54V11.924L44.5252 12.344C43.4799 12.512 42.9572 13.0253 42.9572 13.884C42.9572 14.276 43.0879 14.612 43.3492 14.892C43.6292 15.172 44.0492 15.312 44.6092 15.312ZM58.8584 4.084V18H54.6024V4.084H58.8584ZM58.8864 6.604C58.8864 5.82 59.1477 5.16667 59.6704 4.644C60.2117 4.10267 60.8651 3.832 61.6304 3.832C62.4144 3.832 63.0677 4.10267 63.5904 4.644C64.1317 5.16667 64.4024 5.82 64.4024 6.604C64.4024 7.36933 64.1317 8.02267 63.5904 8.564C63.0677 9.08667 62.4144 9.348 61.6304 9.348C60.8651 9.348 60.2117 9.08667 59.6704 8.564C59.1477 8.02267 58.8864 7.36933 58.8864 6.604ZM71.9145 0.0239995V4.084H74.6305V7.808H71.9145V13.016C71.9145 13.9867 72.4278 14.472 73.4545 14.472C73.7905 14.472 74.1638 14.4253 74.5745 14.332V17.86C74.0518 18.1213 73.3145 18.252 72.3625 18.252C70.9252 18.252 69.7865 17.8507 68.9465 17.048C68.1252 16.2453 67.7145 15.1533 67.7145 13.772V7.808H65.2505V4.084H65.9505C66.6598 4.084 67.1918 3.87867 67.5465 3.468C67.9198 3.03867 68.1065 2.488 68.1065 1.816V0.0239995H71.9145ZM8.288 32.584C7.37333 32.584 6.608 32.892 5.992 33.508C5.39467 34.124 5.096 34.9733 5.096 36.056C5.096 37.12 5.404 37.96 6.02 38.576C6.65467 39.192 7.42933 39.5 8.344 39.5C9.10933 39.5 9.73467 39.304 10.22 38.912C10.724 38.5013 11.06 38.0067 11.228 37.428L14.98 38.576C14.644 39.9013 13.888 41.04 12.712 41.992C11.5547 42.944 10.0987 43.42 8.344 43.42C6.25333 43.42 4.48 42.7293 3.024 41.348C1.58667 39.948 0.868 38.184 0.868 36.056C0.868 33.9093 1.568 32.1453 2.968 30.764C4.38667 29.364 6.132 28.664 8.204 28.664C10.0147 28.664 11.4987 29.1307 12.656 30.064C13.8133 30.9973 14.56 32.1453 14.896 33.508L11.088 34.656C10.92 34.0587 10.6027 33.564 10.136 33.172C9.66933 32.78 9.05333 32.584 8.288 32.584ZM23.5386 39.5C24.4159 39.5 25.1533 39.2013 25.7506 38.604C26.3666 38.0067 26.6746 37.148 26.6746 36.028C26.6746 34.908 26.3666 34.0587 25.7506 33.48C25.1533 32.8827 24.4159 32.584 23.5386 32.584C22.6799 32.584 21.9426 32.8827 21.3266 33.48C20.7106 34.0773 20.4026 34.9267 20.4026 36.028C20.4026 37.1293 20.7106 37.988 21.3266 38.604C21.9426 39.2013 22.6799 39.5 23.5386 39.5ZM23.5386 28.664C25.6479 28.664 27.4026 29.3547 28.8026 30.736C30.2213 32.1173 30.9306 33.8813 30.9306 36.028C30.9306 38.1747 30.2213 39.948 28.8026 41.348C27.4026 42.7293 25.6479 43.42 23.5386 43.42C21.4479 43.42 19.6933 42.72 18.2746 41.32C16.8559 39.92 16.1466 38.156 16.1466 36.028C16.1466 33.9 16.8559 32.1453 18.2746 30.764C19.6933 29.364 21.4479 28.664 23.5386 28.664ZM37.6462 35.02V43H33.3902V29.084H37.5062V30.68C37.8609 30.064 38.4022 29.588 39.1302 29.252C39.8769 28.8973 40.6329 28.72 41.3982 28.72C43.0596 28.72 44.3196 29.2427 45.1782 30.288C46.0369 31.3147 46.4662 32.64 46.4662 34.264V43H42.2102V34.992C42.2102 34.264 42.0142 33.6853 41.6222 33.256C41.2489 32.808 40.6889 32.584 39.9422 32.584C39.2516 32.584 38.6916 32.8173 38.2622 33.284C37.8516 33.732 37.6462 34.3107 37.6462 35.02ZM54.8586 25.024V29.084H57.5746V32.808H54.8586V38.016C54.8586 38.9867 55.3719 39.472 56.3986 39.472C56.7346 39.472 57.1079 39.4253 57.5186 39.332V42.86C56.9959 43.1213 56.2586 43.252 55.3066 43.252C53.8692 43.252 52.7306 42.8507 51.8906 42.048C51.0692 41.2453 50.6586 40.1533 50.6586 38.772V32.808H48.1946V29.084H48.8946C49.6039 29.084 50.1359 28.8787 50.4906 28.468C50.8639 28.0387 51.0506 27.488 51.0506 26.816V25.024H54.8586ZM64.4026 29.084V43H60.1466V29.084H64.4026ZM64.4306 31.604C64.4306 30.82 64.692 30.1667 65.2146 29.644C65.756 29.1027 66.4093 28.832 67.1746 28.832C67.9586 28.832 68.612 29.1027 69.1346 29.644C69.676 30.1667 69.9466 30.82 69.9466 31.604C69.9466 32.3693 69.676 33.0227 69.1346 33.564C68.612 34.0867 67.9586 34.348 67.1746 34.348C66.4093 34.348 65.756 34.0867 65.2146 33.564C64.692 33.0227 64.4306 32.3693 64.4306 31.604ZM71.0852 39.164C71.0852 37.988 71.4679 37.0453 72.2332 36.336C72.9986 35.608 73.9879 35.1507 75.2012 34.964L78.4772 34.46C79.1492 34.3667 79.4852 34.0493 79.4852 33.508C79.4852 33.0787 79.2986 32.724 78.9252 32.444C78.5706 32.1453 78.0759 31.996 77.4412 31.996C76.7319 31.996 76.1626 32.2013 75.7332 32.612C75.3226 33.004 75.0986 33.48 75.0612 34.04L71.3652 33.284C71.4586 32.1267 72.0279 31.072 73.0732 30.12C74.1372 29.1493 75.6026 28.664 77.4692 28.664C79.5786 28.664 81.1279 29.168 82.1172 30.176C83.1252 31.184 83.6292 32.472 83.6292 34.04V40.844C83.6292 41.7213 83.6852 42.44 83.7972 43H79.9612C79.8679 42.6267 79.8212 42.104 79.8212 41.432C79.0186 42.7387 77.7119 43.392 75.9012 43.392C74.4266 43.392 73.2506 42.9813 72.3732 42.16C71.5146 41.32 71.0852 40.3213 71.0852 39.164ZM76.9372 40.312C77.6652 40.312 78.2719 40.0973 78.7572 39.668C79.2426 39.2387 79.4852 38.5293 79.4852 37.54V36.924L76.8532 37.344C75.8079 37.512 75.2852 38.0253 75.2852 38.884C75.2852 39.276 75.4159 39.612 75.6772 39.892C75.9572 40.172 76.3772 40.312 76.9372 40.312ZM93.2603 32.584C92.3457 32.584 91.5803 32.892 90.9643 33.508C90.367 34.124 90.0683 34.9733 90.0683 36.056C90.0683 37.12 90.3763 37.96 90.9923 38.576C91.627 39.192 92.4017 39.5 93.3163 39.5C94.0817 39.5 94.707 39.304 95.1923 38.912C95.6963 38.5013 96.0323 38.0067 96.2003 37.428L99.9523 38.576C99.6163 39.9013 98.8603 41.04 97.6843 41.992C96.527 42.944 95.071 43.42 93.3163 43.42C91.2257 43.42 89.4523 42.7293 87.9963 41.348C86.559 39.948 85.8403 38.184 85.8403 36.056C85.8403 33.9093 86.5403 32.1453 87.9403 30.764C89.359 29.364 91.1043 28.664 93.1763 28.664C94.987 28.664 96.471 29.1307 97.6283 30.064C98.7857 30.9973 99.5323 32.1453 99.8683 33.508L96.0603 34.656C95.8923 34.0587 95.575 33.564 95.1083 33.172C94.6417 32.78 94.0257 32.584 93.2603 32.584ZM107.36 25.024V29.084H110.076V32.808H107.36V38.016C107.36 38.9867 107.873 39.472 108.9 39.472C109.236 39.472 109.609 39.4253 110.02 39.332V42.86C109.497 43.1213 108.76 43.252 107.808 43.252C106.37 43.252 105.232 42.8507 104.392 42.048C103.57 41.2453 103.16 40.1533 103.16 38.772V32.808H100.696V29.084H101.396C102.105 29.084 102.637 28.8787 102.992 28.468C103.365 28.0387 103.552 27.488 103.552 26.816V25.024H107.36Z" fill="#25292E"/>
<path d="M15.568 47.728V65.508C15.568 66.348 15.6053 67.1787 15.68 68H11.592C11.5173 67.552 11.48 67.104 11.48 66.656C11.144 67.1413 10.64 67.5427 9.968 67.86C9.31467 68.1587 8.57733 68.308 7.756 68.308C5.77733 68.308 4.13467 67.6267 2.828 66.264C1.52133 64.8827 0.868 63.128 0.868 61C0.868 58.9093 1.50267 57.1827 2.772 55.82C4.04133 54.4387 5.656 53.748 7.616 53.748C9.52 53.748 10.7707 54.224 11.368 55.176V47.728H15.568ZM6.048 58.48C5.45067 59.0773 5.152 59.9267 5.152 61.028C5.152 62.1293 5.45067 62.988 6.048 63.604C6.664 64.2013 7.41067 64.5 8.288 64.5C9.16533 64.5 9.90267 64.2013 10.5 63.604C11.116 62.988 11.424 62.1293 11.424 61.028C11.424 59.9267 11.116 59.0773 10.5 58.48C9.90267 57.8827 9.16533 57.584 8.288 57.584C7.41067 57.584 6.664 57.8827 6.048 58.48ZM18.1466 64.164C18.1466 62.988 18.5293 62.0453 19.2946 61.336C20.06 60.608 21.0493 60.1507 22.2626 59.964L25.5386 59.46C26.2106 59.3667 26.5466 59.0493 26.5466 58.508C26.5466 58.0787 26.36 57.724 25.9866 57.444C25.632 57.1453 25.1373 56.996 24.5026 56.996C23.7933 56.996 23.224 57.2013 22.7946 57.612C22.384 58.004 22.16 58.48 22.1226 59.04L18.4266 58.284C18.52 57.1267 19.0893 56.072 20.1346 55.12C21.1986 54.1493 22.664 53.664 24.5306 53.664C26.64 53.664 28.1893 54.168 29.1786 55.176C30.1866 56.184 30.6906 57.472 30.6906 59.04V65.844C30.6906 66.7213 30.7466 67.44 30.8586 68H27.0226C26.9293 67.6267 26.8826 67.104 26.8826 66.432C26.08 67.7387 24.7733 68.392 22.9626 68.392C21.488 68.392 20.312 67.9813 19.4346 67.16C18.576 66.32 18.1466 65.3213 18.1466 64.164ZM23.9986 65.312C24.7266 65.312 25.3333 65.0973 25.8186 64.668C26.304 64.2387 26.5466 63.5293 26.5466 62.54V61.924L23.9146 62.344C22.8693 62.512 22.3466 63.0253 22.3466 63.884C22.3466 64.276 22.4773 64.612 22.7386 64.892C23.0186 65.172 23.4386 65.312 23.9986 65.312ZM38.9511 50.024V54.084H41.6671V57.808H38.9511V63.016C38.9511 63.9867 39.4644 64.472 40.4911 64.472C40.8271 64.472 41.2004 64.4253 41.6111 64.332V67.86C41.0884 68.1213 40.3511 68.252 39.3991 68.252C37.9617 68.252 36.8231 67.8507 35.9831 67.048C35.1617 66.2453 34.7511 65.1533 34.7511 63.772V57.808H32.2871V54.084H32.9871C33.6964 54.084 34.2284 53.8787 34.5831 53.468C34.9564 53.0387 35.1431 52.488 35.1431 51.816V50.024H38.9511ZM43.6726 64.164C43.6726 62.988 44.0552 62.0453 44.8206 61.336C45.5859 60.608 46.5752 60.1507 47.7886 59.964L51.0646 59.46C51.7366 59.3667 52.0726 59.0493 52.0726 58.508C52.0726 58.0787 51.8859 57.724 51.5126 57.444C51.1579 57.1453 50.6632 56.996 50.0286 56.996C49.3192 56.996 48.7499 57.2013 48.3206 57.612C47.9099 58.004 47.6859 58.48 47.6486 59.04L43.9526 58.284C44.0459 57.1267 44.6152 56.072 45.6606 55.12C46.7246 54.1493 48.1899 53.664 50.0566 53.664C52.1659 53.664 53.7152 54.168 54.7046 55.176C55.7126 56.184 56.2166 57.472 56.2166 59.04V65.844C56.2166 66.7213 56.2726 67.44 56.3846 68H52.5486C52.4552 67.6267 52.4086 67.104 52.4086 66.432C51.6059 67.7387 50.2992 68.392 48.4886 68.392C47.0139 68.392 45.8379 67.9813 44.9606 67.16C44.1019 66.32 43.6726 65.3213 43.6726 64.164ZM49.5246 65.312C50.2526 65.312 50.8592 65.0973 51.3446 64.668C51.8299 64.2387 52.0726 63.5293 52.0726 62.54V61.924L49.4406 62.344C48.3952 62.512 47.8726 63.0253 47.8726 63.884C47.8726 64.276 48.0032 64.612 48.2646 64.892C48.5446 65.172 48.9646 65.312 49.5246 65.312ZM63.6337 68H59.5177V47.728H63.6897V55.4C64.0071 54.9333 64.5297 54.5413 65.2577 54.224C65.9857 53.9067 66.8071 53.748 67.7217 53.748C69.7004 53.748 71.2684 54.4293 72.4257 55.792C73.6017 57.136 74.1897 58.872 74.1897 61C74.1897 63.128 73.5644 64.8827 72.3137 66.264C71.0817 67.6267 69.4951 68.308 67.5537 68.308C66.6577 68.308 65.8644 68.14 65.1737 67.804C64.4831 67.4493 63.9697 66.992 63.6337 66.432V68ZM69.9337 61.028C69.9337 59.908 69.6351 59.0587 69.0377 58.48C68.4404 57.8827 67.6937 57.584 66.7977 57.584C65.9017 57.584 65.1457 57.8827 64.5297 58.48C63.9324 59.0587 63.6337 59.908 63.6337 61.028C63.6337 62.1293 63.9417 62.988 64.5577 63.604C65.1737 64.2013 65.9204 64.5 66.7977 64.5C67.6751 64.5 68.4124 64.2013 69.0097 63.604C69.6257 62.988 69.9337 62.1293 69.9337 61.028ZM75.8157 64.164C75.8157 62.988 76.1984 62.0453 76.9637 61.336C77.729 60.608 78.7184 60.1507 79.9317 59.964L83.2077 59.46C83.8797 59.3667 84.2157 59.0493 84.2157 58.508C84.2157 58.0787 84.029 57.724 83.6557 57.444C83.301 57.1453 82.8064 56.996 82.1717 56.996C81.4624 56.996 80.893 57.2013 80.4637 57.612C80.053 58.004 79.829 58.48 79.7917 59.04L76.0957 58.284C76.189 57.1267 76.7584 56.072 77.8037 55.12C78.8677 54.1493 80.333 53.664 82.1997 53.664C84.309 53.664 85.8584 54.168 86.8477 55.176C87.8557 56.184 88.3597 57.472 88.3597 59.04V65.844C88.3597 66.7213 88.4157 67.44 88.5277 68H84.6917C84.5984 67.6267 84.5517 67.104 84.5517 66.432C83.749 67.7387 82.4424 68.392 80.6317 68.392C79.157 68.392 77.981 67.9813 77.1037 67.16C76.245 66.32 75.8157 65.3213 75.8157 64.164ZM81.6677 65.312C82.3957 65.312 83.0024 65.0973 83.4877 64.668C83.973 64.2387 84.2157 63.5293 84.2157 62.54V61.924L81.5837 62.344C80.5384 62.512 80.0157 63.0253 80.0157 63.884C80.0157 64.276 80.1464 64.612 80.4077 64.892C80.6877 65.172 81.1077 65.312 81.6677 65.312ZM90.5128 64.052L94.1248 63.408C94.1622 63.9307 94.3582 64.3787 94.7128 64.752C95.0862 65.1067 95.6182 65.284 96.3088 65.284C96.8315 65.284 97.2328 65.172 97.5128 64.948C97.7928 64.7053 97.9328 64.416 97.9328 64.08C97.9328 63.52 97.4755 63.1373 96.5608 62.932L94.9648 62.568C93.5462 62.2693 92.5008 61.7467 91.8288 61C91.1568 60.2347 90.8208 59.3293 90.8208 58.284C90.8208 56.996 91.3248 55.904 92.3328 55.008C93.3595 54.112 94.6382 53.664 96.1688 53.664C97.9795 53.664 99.3328 54.1027 100.229 54.98C101.144 55.8387 101.648 56.7813 101.741 57.808L98.2128 58.452C98.1568 57.948 97.9608 57.5373 97.6248 57.22C97.3075 56.9027 96.8408 56.744 96.2248 56.744C95.8142 56.744 95.4595 56.856 95.1608 57.08C94.8622 57.304 94.7128 57.5933 94.7128 57.948C94.7128 58.508 95.0768 58.8533 95.8048 58.984L97.6528 59.348C99.0528 59.628 100.117 60.16 100.845 60.944C101.573 61.728 101.937 62.652 101.937 63.716C101.937 65.004 101.452 66.1147 100.481 67.048C99.5102 67.9627 98.1475 68.42 96.3928 68.42C95.3662 68.42 94.4515 68.2707 93.6488 67.972C92.8648 67.6733 92.2582 67.2907 91.8288 66.824C91.4182 66.3387 91.1008 65.8627 90.8768 65.396C90.6715 64.9293 90.5502 64.4813 90.5128 64.052ZM107.616 59.376H113.188C113.151 58.7413 112.899 58.1907 112.432 57.724C111.984 57.2573 111.303 57.024 110.388 57.024C109.567 57.024 108.914 57.2667 108.428 57.752C107.943 58.2373 107.672 58.7787 107.616 59.376ZM113.496 62.988L117.052 63.996C116.698 65.284 115.96 66.348 114.84 67.188C113.72 68.0093 112.32 68.42 110.64 68.42C108.624 68.42 106.907 67.748 105.488 66.404C104.088 65.06 103.388 63.2587 103.388 61C103.388 58.8347 104.07 57.0707 105.432 55.708C106.814 54.3453 108.447 53.664 110.332 53.664C112.498 53.664 114.196 54.2987 115.428 55.568C116.679 56.8187 117.304 58.564 117.304 60.804C117.304 61.5133 117.276 61.952 117.22 62.12H107.532C107.57 62.8853 107.896 63.5293 108.512 64.052C109.128 64.556 109.856 64.808 110.696 64.808C112.134 64.808 113.067 64.2013 113.496 62.988Z" fill="#95A1AD"/>
</svg>
