<?xml version="1.0" encoding="UTF-8"?>
<svg width="66px" height="66px" viewBox="0 0 66 66" version="1.1" xmlns="http://www.w3.org/2000/svg" xmlns:xlink="http://www.w3.org/1999/xlink">
    <!-- Generator: sketchtool 52 (66869) - http://www.bohemiancoding.com/sketch -->
    <title>9EDB4760-3ADC-459E-9A1D-42D2E0B3927F</title>
    <desc>Created with sketchtool.</desc>
    <g id="Final-Version" stroke="none" stroke-width="1" fill="none" fill-rule="evenodd">
        <g id="Ethglobal_Website_Version" transform="translate(-687.000000, -7441.000000)">
            <g id="Group-17" transform="translate(-1.000000, 6016.000000)">
                <g id="Footer-Logo" transform="translate(688.000000, 1425.000000)">
                    <g id="Group-6">
                        <polygon id="Fill-732" fill="#1F294F" points="21.9937252 32.6207627 32.9489958 15.4067077 43.9018684 32.6207627 32.9489958 38.880746"></polygon>
                        <polygon id="Fill-733" fill="#1F294F" points="21.9937252 35.5609525 32.9489958 41.8209359 43.9018684 35.5609525 32.9489958 50.4261649"></polygon>
                        <path d="M61.3196336,4.5449592 C55.3066445,-1.46802998 44.3489759,-0.749828476 32.9308909,5.4070408 C34.6058951,6.30629142 36.2713072,7.31225312 37.9295254,8.42372689 C42.3502415,6.37943047 46.5611324,5.28354371 50.1281599,5.28354371 C53.3163031,5.28354371 55.9924729,6.15881432 57.8473272,8.01366861 C61.783647,11.9487893 61.3160366,19.5660416 57.4420649,27.9350674 C58.5487427,29.5896886 59.5547044,31.2551007 60.457552,32.9349009 C66.6144213,21.515617 67.3326228,10.5579484 61.3196336,4.5449592" id="Fill-735" fill="#FFC750"></path>
                        <path d="M37.9297652,8.42420649 C36.228383,9.21794505 34.5713639,10.1040067 32.9671007,11.0787943 C41.8361099,16.5642231 49.3010891,24.0411923 54.7733289,32.9185945 C55.7517136,31.3059384 56.6413722,29.6429242 57.4411057,27.934348 C54.8488659,24.0975454 51.8933289,20.5209259 48.6128626,17.2512506 C45.3479833,13.9683863 41.7689659,11.0116503 37.9297652,8.42420649" id="Fill-736" fill="#FFC750"></path>
                        <path d="M60.4577918,32.9345412 C59.5681332,34.5879634 58.5621715,36.2545745 57.4447027,37.9115937 C56.6461682,36.2006195 55.7541116,34.5328093 54.7733289,32.9177552 C55.7517136,31.3062981 56.6413722,29.6432839 57.4411057,27.9347077 C58.5489825,29.5893289 59.5549442,31.25594 60.4577918,32.9345412" id="Fill-737" fill="#FF512F"></path>
                        <path d="M57.4450624,37.9120733 C56.6465279,36.1999001 55.7544713,34.5332889 54.7724896,32.9170358 C52.0615487,37.3521399 48.8278435,41.4455287 45.1409159,45.1108743 C41.4827644,48.8001998 37.3965695,52.0363031 32.9674604,54.75204 C34.5705246,55.7292256 36.2275437,56.6176853 37.9301249,57.4078268 C41.7693256,54.819184 45.347144,51.862448 48.6132223,48.5783847 C51.8948876,45.3171024 54.8528226,41.7440799 57.4450624,37.9120733" id="Fill-738" fill="#FF6895"></path>
                        <path d="M63.9751807,41.1671207 C63.06394,38.3182948 61.8877202,35.5605928 60.4573122,32.934781 C59.5664546,34.5882032 58.5616919,36.2536153 57.4454221,37.9118335 C61.3157968,46.2772623 61.7834072,53.8861216 57.8482864,57.8176453 C53.9107677,61.753965 46.2983114,61.2815587 37.9292856,57.407587 C37.5851724,57.6413922 37.2398601,57.8680033 36.8957469,58.0886195 C35.581642,58.9339151 34.256746,59.7144646 32.9306511,60.4242731 C39.0095853,63.7035404 44.9566295,65.4396936 50.099144,65.4396936 C54.6133822,65.4396936 58.5077369,64.1016087 61.3193938,61.2899517 C65.7197269,56.8896187 66.6585445,49.7447727 63.9751807,41.1671207" id="Fill-739" fill="#FF6895"></path>
                        <path d="M37.9297652,57.407587 C37.585652,57.6413922 37.2403397,57.8680033 36.8962265,58.0886195 C35.5821216,58.9339151 34.2572256,59.7144646 32.9311307,60.4242731 C31.2813056,59.5370125 29.6254854,58.5358468 27.9648693,57.419577 C29.6830375,56.6294355 31.3544446,55.7373789 32.9671007,54.7518002 C34.5701649,55.7301848 36.227184,56.6174455 37.9297652,57.407587" id="Fill-740" fill="#552990"></path>
                        <path d="M23.2290558,59.2587244 C16.4810791,61.3725629 11.0879734,60.8593905 8.04730724,57.8175254 C5.00544213,54.7768593 4.49226978,49.3837535 6.60730724,42.6369759 C7.1168826,41.0219217 7.72957202,39.4416386 8.44057952,37.9033206 C7.32790674,36.2510974 6.32674105,34.5880833 5.43708243,32.9382581 C4.00907244,35.5640699 2.83285262,38.3193739 1.92281099,41.1670008 C-0.765348876,49.7446528 0.178264779,56.8894988 4.57380183,61.2898318 C7.33270275,64.0439367 11.1659084,65.4431707 15.7556836,65.4431707 C18.7939517,65.3976087 21.8070408,64.8904313 24.6942348,63.9408226 C27.5442598,63.030781 30.3019617,61.8533622 32.9313705,60.4241532 C31.2815454,59.5368926 29.6257252,58.5357269 27.9651091,57.4194571 C26.426791,58.1340616 24.8453089,58.74795 23.2290558,59.2587244" id="Fill-741" fill="#5666F6"></path>
                        <path d="M27.9653489,57.4192173 C29.6835171,56.6290758 31.3537252,55.7382182 32.9675803,54.7514405 C28.5240833,52.0404996 24.4235004,48.8031973 20.7533589,45.1102748 C17.0616353,41.4413322 13.8243331,37.3407494 11.1121932,32.8972523 C10.1266145,34.5135054 9.23575687,36.1849126 8.44081932,37.9042798 C11.0390541,41.7398834 14.0005862,45.3141049 17.2858485,48.5789842 C20.5483297,51.8666445 24.1261482,54.8281765 27.9653489,57.4192173" id="Fill-742" fill="#5666F6"></path>
                        <path d="M11.1125529,32.8971324 C10.1269742,34.5145845 9.23611657,36.1847927 8.43998002,37.9041599 C7.32850624,36.2507377 6.32734055,34.5877236 5.43768193,32.9378984 C6.33573356,31.2640933 7.34409326,29.5890891 8.45676603,27.9344679 C9.24810658,29.6370491 10.1353672,31.2940683 11.1125529,32.8971324" id="Fill-743" fill="#204FA0"></path>
                        <path d="M8.04718734,8.01318901 C11.0878535,4.9725229 16.4809592,4.45815154 23.2289359,6.57678601 C24.845189,7.08875937 26.4266711,7.70024979 27.9649892,8.41125729 C29.5680533,7.32736053 31.2262714,6.32499584 32.9312506,5.4065612 C30.3030408,3.97615321 27.5453389,2.79753539 24.6941149,1.88989176 C16.12006,-0.794671107 8.97401499,0.145345545 4.57488093,4.5444796 C1.76322398,7.35613655 0.426338052,11.2516903 0.426338052,15.7659284 C0.426338052,20.908443 2.16129226,26.8602831 5.43696253,32.9380183 C6.33501415,31.2642132 7.34457286,29.589209 8.45724563,27.9345878 C4.58207494,19.566761 4.11086761,11.9483097 8.04718734,8.01318901" id="Fill-744" fill="#5FC5A6"></path>
                        <path d="M27.9653489,8.41125729 C20.2893455,13.6305079 13.6696619,20.2549875 8.45640633,27.9345878 C9.24894588,29.637169 10.1350075,31.2941882 11.1121932,32.8972523 C16.60002,24.0222481 24.0841832,16.5500749 32.9675803,11.0790341 C31.3537252,10.0922565 29.6835171,9.20259784 27.9653489,8.41125729" id="Fill-745" fill="#5FC5A6"></path>
                    </g>
                    <path d="M37.9297652,8.42420649 C36.228383,9.21794505 34.5713639,10.1040067 32.9671007,11.0787943 C31.3544446,10.0932157 29.6830375,9.20235803 27.9648693,8.41101749 C29.5679334,7.32712073 31.2261515,6.32475604 32.9311307,5.4063214 C34.6061349,6.30557202 36.271547,7.31153372 37.9297652,8.42420649" id="Fill-734" fill="#5F9A34"></path>
                </g>
            </g>
        </g>
    </g>
</svg>